<svg xmlns="http://www.w3.org/2000/svg" viewBox="0 0 430.11 395.55"><g data-name="Слой 1" style="isolation:isolate"><path style="fill:none;stroke:#303030;stroke-linecap:round;stroke-linejoin:round;stroke-width:20px" d="m126.75 253.88-24.85 17.6v35.12h291.07"/><circle cx="154.49" cy="357.12" r="26.98" style="fill:none;stroke:#303030;stroke-linecap:round;stroke-linejoin:round;stroke-width:20px"/><circle cx="335.97" cy="357.12" r="26.98" style="fill:none;stroke:#303030;stroke-linecap:round;stroke-linejoin:round;stroke-width:20px"/><path style="fill:none;stroke:#303030;stroke-linecap:round;stroke-linejoin:round;stroke-width:20px" d="M86.94 105.78 71.75 48.97 10 10M404.41 105.78l-39.8 148.81H126.75L86.94 105.78h317.47z"/><path d="M171.62 185.86h286.27a8.16 8.16 0 0 1 7.81 10.53l-36.07 134.45a8.15 8.15 0 0 1-7.81 5.79H199a8.15 8.15 0 0 1-7.95-6.33l-27.38-134.45a8.16 8.16 0 0 1 7.95-9.99Z" transform="translate(-35.94 -53.23)" style="fill:#00b733;mix-blend-mode:multiply"/><circle cx="217.41" cy="414.93" r="33.84" transform="rotate(-45 135.191 431.712)" style="fill:#00b733;mix-blend-mode:multiply"/><circle cx="400.55" cy="414.93" r="33.84" transform="rotate(-22.5 248.78 478.665)" style="fill:#00b733;mix-blend-mode:multiply"/></g></svg>