<svg xmlns="http://www.w3.org/2000/svg" xmlns:xlink="http://www.w3.org/1999/xlink" width="512" height="512" style="enable-background:new 0 0 512 512" xml:space="preserve"><linearGradient id="c" gradientUnits="userSpaceOnUse" x1="74.98" x2="437.019" y1="437.019" y2="74.981"><stop offset="0" stop-color="#00aa45"/><stop offset="1" stop-color="#d3ff33"/></linearGradient><radialGradient id="d" cx="253.971" cy="379.718" gradientUnits="userSpaceOnUse" r="368.349"><stop offset="0" stop-color="#00aa45"/><stop offset=".096" stop-color="#24b74e" stop-opacity=".9"/><stop offset=".268" stop-color="#5ecc5d" stop-opacity=".721"/><stop offset=".434" stop-color="#8fde69" stop-opacity=".547"/><stop offset=".59" stop-color="#b5ec73" stop-opacity=".384"/><stop offset=".734" stop-color="#d0f679" stop-opacity=".234"/><stop offset=".861" stop-color="#e0fc7e" stop-opacity=".101"/><stop offset=".958" stop-color="#e6fe7f" stop-opacity="0"/></radialGradient><linearGradient id="a"><stop offset="0" stop-color="#00aa45"/><stop offset=".121" stop-color="#12b143"/><stop offset=".365" stop-color="#41c43f"/><stop offset=".705" stop-color="#8ce339"/><stop offset="1" stop-color="#d3ff33"/></linearGradient><linearGradient id="e" gradientUnits="userSpaceOnUse" x1="274.397" x2="530.499" xlink:href="#a" y1="210.842" y2="-45.26"/><linearGradient id="f" gradientUnits="userSpaceOnUse" x1="224.884" x2="555.666" xlink:href="#a" y1="309.668" y2="-21.114"/><linearGradient id="g" gradientUnits="userSpaceOnUse" x1="177.2" x2="344.408" xlink:href="#a" y1="175.809" y2="8.601"/><linearGradient id="h" gradientUnits="userSpaceOnUse" x1="127.975" x2="367.815" xlink:href="#a" y1="225.035" y2="-14.805"/><linearGradient id="i" gradientUnits="userSpaceOnUse" x1="176.246" x2="394.041" y1="394.3" y2="176.506"><stop offset="0" stop-color="#00753b"/><stop offset=".249" stop-color="#12873a"/><stop offset=".747" stop-color="#41b339"/><stop offset="1" stop-color="#5bcc38"/></linearGradient><linearGradient id="j" gradientUnits="userSpaceOnUse" x1="172.73" x2="326.512" y1="382.25" y2="228.469"><stop offset="0" stop-color="#95e12e"/><stop offset=".356" stop-color="#c0ed83"/><stop offset=".664" stop-color="#e2f7c6"/><stop offset=".886" stop-color="#f7fdef"/><stop offset="1" stop-color="#fff"/></linearGradient><linearGradient id="b"><stop offset="0" stop-color="#00753b"/><stop offset=".123" stop-color="#12873a"/><stop offset=".37" stop-color="#41b339"/><stop offset=".5" stop-color="#5ccd38"/><stop offset=".779" stop-color="#9de835"/><stop offset="1" stop-color="#d3ff33"/></linearGradient><linearGradient id="k" gradientUnits="userSpaceOnUse" x1="141.739" x2="673.878" xlink:href="#b" y1="552.442" y2="20.304"/><linearGradient id="l" gradientUnits="userSpaceOnUse" x1="1.629" x2="539.44" xlink:href="#b" y1="443.237" y2="-94.575"/><linearGradient id="m" gradientUnits="userSpaceOnUse" x1="22.947" x2="369.188" xlink:href="#a" y1="598.671" y2="252.431"/><linearGradient id="n" gradientUnits="userSpaceOnUse" x1="151.483" x2="343.084" xlink:href="#a" y1="476.202" y2="284.6"/><linearGradient id="o" gradientUnits="userSpaceOnUse" x1="122.85" x2="705.994" xlink:href="#b" y1="503.147" y2="-79.997"/><circle cx="256" cy="256" fill="url(#c)" r="256" data-original="url(#SVGID_1_)"/><circle cx="256" cy="256" fill="url(#d)" r="256" data-original="url(#SVGID_2_)"/><path d="M409.549 103.916c1.117-.431 1.978-.345 2.454.132-1.053-1.053-2.487-1.714-4.027-1.706-79.437.264-143.924 68.462-144.294 151.313 22.868-60.282 88.178-127.479 145.867-149.739z" fill="url(#e)" data-original="url(#SVGID_3_)"/><path d="M412.003 104.048c-.479-.478-1.337-.563-2.454-.132-57.69 22.259-122.998 89.456-145.867 149.739 82.862-.229 150.746-65.034 150.051-145.554-.006-1.556-.678-3-1.73-4.053z" fill="url(#f)" data-original="url(#SVGID_4_)"/><path d="M102.452 103.916c57.689 22.259 122.997 89.456 145.867 149.739-.368-82.852-64.858-151.047-144.295-151.313-1.539-.009-2.975.654-4.026 1.706.476-.477 1.336-.562 2.454-.132z" fill="url(#g)" data-original="url(#SVGID_5_)"/><path d="M102.452 103.916c-1.118-.432-1.977-.345-2.454.132-1.052 1.053-1.722 2.496-1.73 4.052-.697 80.52 67.192 145.324 150.051 145.554-22.87-60.281-88.179-127.478-145.867-149.738z" fill="url(#h)" data-original="url(#SVGID_6_)"/><path d="M89.823 293.896C111.39 364.214 179.469 448.634 256 448.795c76.531-.161 144.609-84.581 166.177-154.899-110.784.165-221.57.165-332.354 0z" fill="url(#i)" data-original="url(#SVGID_7_)"/><path d="M256 245.966c-4.24 0-7.679 3.443-7.682 7.688-.011 31.283-.006 62.567.015 93.851 5.111.003 10.223.003 15.333 0 .021-31.284.026-62.567.015-93.851-.001-4.244-3.441-7.688-7.681-7.688z" fill="url(#j)" data-original="url(#SVGID_8_)"/><path d="M453.137 278.793c-50.003-.075-100.007-.122-150.01-.14-7.612-.004-13.781 6.162-13.783 13.771 0 2.703.792 5.345 2.281 7.597a24493.282 24493.282 0 0 1 21.36 32.369c.222.333.428.664.634.993 7.457 11.287 11.325 24.414 11.209 37.989 33.054 5.966 66.029 11.733 98.897 17.198 21.801-26.661 37.601-57.955 44.504-91.892 1.888-9.251-5.426-17.861-15.092-17.885z" fill="url(#k)" data-original="url(#SVGID_9_)"/><path d="M208.874 278.654c-50.004.018-100.007.065-150.011.14-9.666.023-16.976 8.633-15.09 17.886 6.905 33.936 22.703 65.231 44.504 91.892 32.868-5.466 65.842-11.232 98.897-17.198-.115-13.558 3.74-26.676 11.168-37.972 7.319-11.11 14.669-22.239 22.034-33.38a13.77 13.77 0 0 0 2.282-7.597c-.003-7.609-6.173-13.776-13.784-13.771z" fill="url(#l)" data-original="url(#SVGID_10_)"/><path d="M287.982 350.387c.011.004-14.803-22.497-24.294-36.857-3.642-5.516-11.734-5.512-15.379.003a20752.67 20752.67 0 0 0-24.301 36.854 38.047 38.047 0 0 0-6.246 21.14c.123 21.203 17.267 38.503 38.237 38.506 20.969-.002 38.113-17.303 38.237-38.506.038-7.819-2.267-15.08-6.254-21.14z" fill="url(#m)" data-original="url(#SVGID_11_)"/><path d="M263.632 386.967c-21.051.017-38.219-17.256-38.296-38.466 0-.047.004-.092.005-.138l-1.332 2.024a38.047 38.047 0 0 0-6.246 21.14c.123 21.203 17.267 38.503 38.237 38.506 20.969-.002 38.113-17.303 38.237-38.505-7.023 9.351-18.126 15.429-30.605 15.439z" fill="url(#n)" data-original="url(#SVGID_12_)"/><path d="M356.399 339.848c-17.199.094-31.523 13.982-31.57 31.171a69.961 69.961 0 0 1-.329 6.546c-3.468 34.957-32.901 62.635-67.4 63.209-37.885.606-69.512-31.025-69.927-69.4l-.002-.329c-.055-17.067-13.669-31.099-30.745-31.191a16739.34 16739.34 0 0 1-44.817-.323c-25.804-.161-39.883 28.913-23.326 49.036 40.768 49.554 101.191 83.007 167.717 82.967 66.528.039 126.947-33.413 167.717-82.967 16.559-20.123 2.477-49.196-23.326-49.036-14.664.124-29.328.23-43.992.317z" fill="url(#o)" data-original="url(#SVGID_13_)"/></svg>